**ABCDEFGHIJKLMNOPQRSTUVWXYZabcdefghijklmnopqrstuvwxyz**************************
**PARASOLID !"#$%&'()*+,-./:;<=>?@[\]^_`{|}~0123456789**************************
**PART1;
MC=AMD64;
MC_MODEL=Intel64 Family 6 Model 42 Stepping 7, GenuineIntel;
MC_ID=unknown;
OS=Windows_NT;
OS_RELEASE=unknown;
FRU=Parasolid Version 19.1, build 261,  8- 1-2008;
APPL=SolidWorks 2009-2008251;
SITE=;
USER=unknown;
FORMAT=text;
GUISE=transmit;
KEY=Albero_NoRacc;
FILE=Albero_NoRacc.x_t;
DATE=Tue Oct 18 15:13:21 2011;
**PART2;
SCH=SCH_1901261_19008;
USFLD_SIZE=0;
**PART3;
**END_OF_HEADER*****************************************************************
T51 : TRANSMIT FILE created by modeller version 190126123 SCH_1901261_19008_1300
6186 0 12 27 CCCCCCCCCCCCCCCCCCCCCCCA16 index_map_offset0 0 1 dA9 index_map82 0
 A17 node_id_index_map82 0 A20 schema_embedding_map82 0 Z1 116 0 2 0 0 0 0 1e3 1
e-8 0 3 0 1 0 1 1 4 5 6 0 7 8 0 0 0 0 0 70 11 CI9 list_type0 0 1 uI10 notransmit
0 0 1 lCCCDCCDI12 finger_index0 0 1 dI12 finger_block1012 0 CZ2 0 4 T1 0 0 2 20
 1 9 9 13 255 4 29 0 1 0 10 0 0 11 0 51 255 5 28 0 12 13 0 0 -0 0 .1 0 0 -1 .075
 -1 0 0 31 255 6 23 0 14 15 0 0 +0 0 0 0 0 1 1 0 0 .075 19 255 7 7 0 1 11 0 16 V
16 255 8 4 0 ?17 0 14 15 0 0 1 17 255 17 0 18 17 17 0 19 8 0 0 +16 14 18 0 ?20 8
 21 6 0 0 1 31 15 5 0 8 22 6 0 +0 0 .1 0 0 1 1 0 0 .075 31 22 80 0 23 24 15 0 +0
 0 .1 0 0 1 1 0 0 .05 16 23 58 0 ?25 21 0 22 0 0 1 31 24 81 0 21 0 22 0 +0 0 .2
 0 0 1 1 0 0 .05 16 21 61 0 ?26 14 23 24 0 0 1 17 26 0 27 26 26 0 28 21 0 0 +15
 255 27 71 0 26 29 0 17 28 0 30 28 28 0 26 21 0 0 -15 30 67 0 28 31 32 14 255 31
 64 33 ?29 34 30 4 35 -0 0 29 34 16 15 32 68 0 25 31 0 17 25 0 32 25 25 0 36 23
 0 0 +17 36 0 37 36 36 0 25 23 0 0 -15 37 51 0 36 10 0 14 10 54 38 ?12 0 18 4 39
 +0 0 12 0 16 81 255 1 38 113 40 10 41 0 33 42 43 14 12 25 42 ?34 10 44 4 5 -0 0
 34 10 16 15 18 3 0 17 10 37 50 255 39 2 0 10 35 13 0 +0 0 .1 0 0 1 1 0 0 13 16
 8 0 0 0 0 0 0 7 10 51 35 77 0 31 45 39 0 -0 0 .2 0 0 -1 .05 -1 0 0 50 13 22 0 3
4 39 5 0 +0 0 0 0 0 1 1 0 0 14 34 16 46 ?31 12 47 4 13 -0 0 31 12 16 81 1 46 115
 40 34 48 0 42 49 50 15 47 17 0 51 34 0 17 51 0 47 51 51 0 20 14 0 0 -17 20 0 52
 20 20 0 51 14 0 0 +15 52 26 0 20 12 0 80 255 1 40 53 54 9000 1 1 1 1 1 1 1 1 0
 FFFFTFTFFFFFFF1 81 1 48 99 55 34 0 46 56 57 58 81 1 42 114 40 12 56 0 38 46 59
 81 1 49 116 40 29 60 0 46 0 61 82 255 1 50 1434190134 14 29 69 49 ?0 31 27 4 45
 +0 0 0 31 16 81 1 60 101 55 29 0 49 57 0 62 82 1 61 2071265597 80 1 55 0 63 800
1 0 0 0 0 3 5 0 0 0 FFFFTFTFFFFFFF2 81 1 57 100 55 31 0 33 48 60 64 83 255 3 62
 .752941176470588 .752941176470588 .752941176470588 81 1 33 112 40 31 57 0 0 38
 65 83 3 64 .752941176470588 .752941176470588 .752941176470588 82 1 65 207323167
7 79 255 15 63 SDL/TYSA_COLOUR50 45 79 0 29 0 35 0 +0 0 .2 0 0 1 1 0 0 81 1 56 9
8 55 12 0 42 41 48 66 82 1 59 1434714422 81 1 41 97 55 10 0 38 0 56 67 83 3 66 .
752941176470588 .752941176470588 .752941176470588 83 3 67 .752941176470588 .7529
41176470588 .752941176470588 83 3 58 .752941176470588 .752941176470588 .75294117
6470588 79 14 54 SWEntUnchanged15 44 24 0 19 12 52 17 19 0 44 19 19 0 17 8 0 0 -
82 1 43 2075394365 19 11 30 0 1 0 7 4 S74 4 CI16 index_map_offset0 0 1 dCCZ20 9
 2 0 0 49 60 0 0 0 0 0 0 0 0 0 0 0 0 0 0 0 0 0 0 1 0 
