**ABCDEFGHIJKLMNOPQRSTUVWXYZabcdefghijklmnopqrstuvwxyz**************************
**PARASOLID !"#$%&'()*+,-./:;<=>?@[\]^_`{|}~0123456789**************************
**PART1;
MC=AMD64;
MC_MODEL=Intel64 Family 6 Model 42 Stepping 7, GenuineIntel;
MC_ID=unknown;
OS=Windows_NT;
OS_RELEASE=unknown;
FRU=Parasolid Version 24.1, build 231,  7-17-2012;
APPL=SolidWorks 2013-2012270;
SITE=;
USER=unknown;
FORMAT=text;
GUISE=transmit;
KEY=Albero;
FILE=Albero.x_t;
DATE=Wed Nov 11 10:29:01 2015;
**PART2;
SCH=SCH_2401231_20000;
USFLD_SIZE=0;
**PART3;
**END_OF_HEADER*****************************************************************
T51 : TRANSMIT FILE created by modeller version 240123123 SCH_2401231_20000_1300
6189 0 12 27 CCCCCCCCCCCCCCCCCCCCCCCA16 index_map_offset0 0 1 dA9 index_map82 0
 A17 node_id_index_map82 0 A20 schema_embedding_map82 0 Z1 217 0 2 0 0 0 0 1e3 1
e-8 0 3 0 1 0 1 1 4 5 6 0 7 8 0 0 0 0 0 70 11 CI9 list_type0 0 1 uI10 notransmit
0 0 1 lCCCDCCDI12 finger_index0 0 1 dI12 finger_block1012 0 CZ2 0 4 T1 0 0 2 20
 1 9 9 13 255 4 29 0 1 0 10 0 0 11 0 54 255 5 117 0 12 13 0 0 +0 0 .11 0 0 1 .06
 .01 1 0 0 31 255 6 165 0 8 14 0 0 +0 0 .13 1691058313999695e-31 0 1 1 0 -169105
8313999695e-31 .05 19 255 7 7 0 1 11 0 15 V16 255 8 156 0 ?16 0 17 6 0 0 1 17 25
5 16 0 18 16 16 0 19 8 0 0 +16 17 98 0 ?20 8 21 14 0 0 1 17 20 0 22 20 20 0 23 1
7 0 0 +16 21 92 0 ?24 17 25 26 0 0 1 31 14 101 0 17 26 6 0 -0 0 .1 0 0 1 1 0 0 .
06 31 26 95 0 21 27 14 0 +0 0 .11 0 0 1 1 0 0 .05 31 27 23 0 28 29 26 0 +0 0 0 0
 0 1 1 0 0 .075 16 28 18 0 ?30 25 31 27 0 0 1 31 29 5 0 25 32 27 0 +0 0 .1 0 0 1
 1 0 0 .075 16 25 4 0 ?33 21 28 29 0 0 1 31 32 81 0 31 0 29 0 +0 0 .2 0 0 1 1 0
 0 .05 16 31 61 0 ?34 28 0 32 0 0 1 17 34 0 35 34 34 0 36 31 0 0 +15 255 35 71 0
 34 37 0 17 36 0 38 36 36 0 34 31 0 0 -15 38 67 0 36 39 0 14 255 39 64 40 ?37 41
 18 4 42 -10 10 37 41 15 81 255 1 40 211 43 39 44 0 0 45 46 14 37 69 45 ?12 39 3
5 4 47 +0 0 12 39 15 14 41 16 48 ?39 49 50 4 51 -0 0 39 49 15 15 18 157 0 16 39
 38 51 255 42 77 0 39 47 52 0 -0 0 .2 0 0 -1 .05 -1 0 0 14 10 160 53 ?54 0 55 4
 42 -39 39 54 0 15 13 15 8 0 0 0 0 0 0 7 10 81 1 53 214 43 10 56 0 48 57 58 14 5
4 54 57 ?49 10 22 4 52 +0 0 49 10 15 15 55 93 0 24 10 59 17 24 0 55 24 24 0 60 2
1 0 0 +15 59 158 0 19 10 0 17 19 0 59 19 19 0 16 8 0 0 -17 60 0 61 60 60 0 24 21
 0 0 -15 61 112 0 60 12 0 14 12 110 62 ?0 37 63 4 5 -0 0 0 37 15 81 1 62 216 43
 12 64 0 57 65 66 15 63 111 0 23 12 61 17 23 0 63 23 23 0 20 17 0 0 -80 255 1 43
 67 68 9000 1 1 1 1 1 1 1 1 0 FFFFTFTFFFFFFF1 81 1 64 191 69 12 0 62 70 0 71 81
 1 57 215 43 54 72 0 53 62 73 81 1 65 217 43 49 74 0 62 0 75 82 255 1 66 1449132
346 14 49 25 65 ?41 54 76 4 13 -0 0 41 54 15 81 1 74 187 69 49 0 65 72 77 78 82
 1 75 1434714422 80 1 69 0 79 8001 0 0 0 0 3 5 0 0 0 FFFFTFTFFFFFFF2 81 1 72 186
 69 54 0 57 56 74 80 81 1 77 188 69 41 0 48 74 44 81 83 255 3 78 .75294117647058
8 .752941176470588 .752941176470588 81 1 48 213 43 41 77 0 45 53 82 81 1 44 189
 69 39 0 40 77 70 83 83 3 81 .752941176470588 .752941176470588 .752941176470588
 81 1 70 190 69 37 0 45 44 64 84 83 3 83 .752941176470588 .752941176470588 .7529
41176470588 81 1 45 212 43 37 70 0 40 48 85 83 3 84 .752941176470588 .7529411764
70588 .752941176470588 82 1 85 1442316601 82 1 82 1434190134 81 1 56 185 69 10 0
 53 0 72 86 83 3 80 .752941176470588 .752941176470588 .752941176470588 83 3 86 .
752941176470588 .752941176470588 .752941176470588 79 255 15 79 SDL/TYSA_COLOUR15
 76 24 0 87 49 88 51 13 28 0 49 51 5 0 -0 0 .1 0 0 -1 .075 -1 0 0 50 255 51 22 0
 41 52 13 0 +0 0 0 0 0 1 1 0 0 50 52 2 0 54 42 51 0 +0 0 .1 0 0 1 1 0 0 17 87 0
 76 87 87 0 33 25 0 0 -15 88 26 0 30 49 0 17 30 0 88 30 30 0 89 28 0 0 +17 89 0
 50 89 89 0 30 28 0 0 -15 50 17 0 89 41 0 17 33 0 90 33 33 0 87 25 0 0 +15 90 3
 0 33 54 0 82 1 73 1446445370 83 3 71 .752941176470588 .752941176470588 .7529411
76470588 79 14 68 SWEntUnchanged15 22 99 0 20 54 90 82 1 58 -2098331312 50 47 79
 0 37 0 42 0 +0 0 .2 0 0 1 1 0 0 82 1 46 18874704 19 11 30 0 1 0 7 4 S74 4 CI16
 index_map_offset0 0 1 dCCZ20 9 2 0 0 65 64 0 0 0 0 0 0 0 0 0 0 0 0 0 0 0 0 0 0
 1 0 
